<svg xmlns="http://www.w3.org/2000/svg" viewBox="0 0 1440 320"><path fill="#ffc000" fillOpacity="1" d="M0,96L0,224L36.9,224L36.9,128L73.8,128L73.8,256L110.8,256L110.8,288L147.7,288L147.7,320L184.6,320L184.6,64L221.5,64L221.5,160L258.5,160L258.5,192L295.4,192L295.4,320L332.3,320L332.3,320L369.2,320L369.2,32L406.2,32L406.2,320L443.1,320L443.1,192L480,192L480,128L516.9,128L516.9,96L553.8,96L553.8,160L590.8,160L590.8,288L627.7,288L627.7,96L664.6,96L664.6,96L701.5,96L701.5,224L738.5,224L738.5,32L775.4,32L775.4,256L812.3,256L812.3,96L849.2,96L849.2,160L886.2,160L886.2,32L923.1,32L923.1,128L960,128L960,0L996.9,0L996.9,128L1033.8,128L1033.8,32L1070.8,32L1070.8,256L1107.7,256L1107.7,256L1144.6,256L1144.6,96L1181.5,96L1181.5,256L1218.5,256L1218.5,128L1255.4,128L1255.4,160L1292.3,160L1292.3,32L1329.2,32L1329.2,0L1366.2,0L1366.2,160L1403.1,160L1403.1,224L1440,224L1440,320L1403.1,320L1403.1,320L1366.2,320L1366.2,320L1329.2,320L1329.2,320L1292.3,320L1292.3,320L1255.4,320L1255.4,320L1218.5,320L1218.5,320L1181.5,320L1181.5,320L1144.6,320L1144.6,320L1107.7,320L1107.7,320L1070.8,320L1070.8,320L1033.8,320L1033.8,320L996.9,320L996.9,320L960,320L960,320L923.1,320L923.1,320L886.2,320L886.2,320L849.2,320L849.2,320L812.3,320L812.3,320L775.4,320L775.4,320L738.5,320L738.5,320L701.5,320L701.5,320L664.6,320L664.6,320L627.7,320L627.7,320L590.8,320L590.8,320L553.8,320L553.8,320L516.9,320L516.9,320L480,320L480,320L443.1,320L443.1,320L406.2,320L406.2,320L369.2,320L369.2,320L332.3,320L332.3,320L295.4,320L295.4,320L258.5,320L258.5,320L221.5,320L221.5,320L184.6,320L184.6,320L147.7,320L147.7,320L110.8,320L110.8,320L73.8,320L73.8,320L36.9,320L36.9,320L0,320L0,320Z"></path></svg>
