<svg version="1.2" baseProfile="tiny-ps" xmlns="http://www.w3.org/2000/svg" viewBox="0 0 1600 1600"><style>tspan { white-space:pre }.shp0 { fill: none;stroke: #f3fcff;stroke-width: 150 } .shp1 { fill: #eb2c3d } .shp2 { fill: #212875 } .shp3 { fill: #ffc000 } .shp4 { fill: #009e4b } .shp5 { opacity: 0.18;fill: none;stroke: #333333;stroke-width: 17.503 } </style><g id="dark"><g id="λ"><path id="right" class="shp0" d="M437.6 146.08C984.44 344.73 1109.8 1424 1109.8 1424" /><path id="left" class="shp0" d="M775.81 530.01C414.24 845.51 374.52 1424 374.52 1424" /></g></g><g id="flag"><path id="red" class="shp1" d="M784.67 908.9C784.67 908.9 842.11 879.33 905.5 883.89C968.89 888.46 1091.6 910.58 1140.4 909.38C1187.2 908.23 1246.13 883.77 1246.13 883.77L1246.13 958.93C1246.13 958.93 1198.8 983.8 1138.8 985C1075.6 986.27 949.05 958.99 892 958.99C834.95 958.99 785 985 785 985L784.67 908.9Z" /><path id="blue" class="shp2" d="M784.67 984.13C784.67 984.13 842.11 954.55 905.5 959.12C968.89 963.69 1091.6 985.8 1140.4 984.6C1187.2 983.45 1246.13 959 1246.13 959L1246.13 1034.15C1246.13 1034.15 1198.8 1059.03 1138.8 1060.23C1075.6 1061.49 949.05 1034.22 892 1034.22C834.95 1034.22 785 1060.23 785 1060.23L784.67 984.13Z" /><path id="yellow" class="shp3" d="M784.67 1059.75C784.67 1059.75 842.11 1030.18 905.5 1034.74C968.89 1039.31 1091.6 1061.43 1140.4 1060.23C1187.2 1059.08 1246.13 1034.62 1246.13 1034.62L1246.13 1109.78C1246.13 1109.78 1198.8 1134.65 1138.8 1135.85C1075.6 1137.12 949.05 1109.84 892 1109.84C834.95 1109.84 785 1135.85 785 1135.85L784.67 1059.75Z" /><path id="green" class="shp4" d="M784.67 1134.78C784.67 1134.78 842.11 1105.2 905.5 1109.77C968.89 1114.34 1076.37 1135.1 1142.33 1135.1C1196 1135.1 1246.13 1109.65 1246.13 1109.65L1246.13 1184.8C1246.13 1184.8 1200.54 1213.97 1143 1213.97C1085.45 1213.97 971.2 1188.27 892 1188.27C834.95 1188.27 784.67 1213.97 784.67 1213.97L784.67 1134.78Z" /><path id="stroke" class="shp5" d="M793.37 914.2C793.37 914.2 840.67 892.18 893.53 892.18C944.72 892.18 1074.97 918.22 1130.85 917.97C1189.34 917.71 1237.4 896.74 1237.4 896.74L1237.02 1179.61C1237.02 1179.61 1190.57 1207.4 1131.5 1204.96C1087.96 1203.15 956.9 1179.15 893.9 1179.15C843.89 1179.15 793.98 1200.91 793.98 1200.91L793.37 914.2Z" /></g></svg>
